<svg t="1650367224234" class="icon" viewBox="0 0 1024 1024" version="1.1" xmlns="http://www.w3.org/2000/svg" p-id="1625" width="128" height="128"><path d="M512 137.05728c73.22112 0 142.94016 26.81344 196.3264 75.49952 59.69408 54.44096 93.58848 128.73216 95.4368 209.18784 1.85344 80.512-28.47744 156.20096-85.4016 213.12-46.4128 46.4128-135.09632 157.12768-204.3136 245.7856-70.74304-88.25856-161.32096-198.69696-208.4096-245.7856-56.92416-56.92416-87.25504-132.608-85.4016-213.12 1.84832-80.45056 35.74272-154.74176 95.4368-209.18784C369.05984 163.87072 438.77888 137.05728 512 137.05728m0-71.68c-87.87968 0-175.75936 31.40608-244.62848 94.22336-154.27072 140.6976-158.40768 379.96544-12.42112 525.95712 48.5376 48.5376 150.46144 174.01856 211.23584 250.01472a61.0816 61.0816 0 0 0 47.96416 23.06048c18.08896 0 36.1728-7.90528 48.45568-23.68 59.45856-76.34944 158.93504-201.89184 206.4384-249.3952 145.99168-145.98656 141.8496-385.2544-12.42112-525.95712-68.864-62.81728-156.74368-94.22336-244.62336-94.22336z" fill="black" p-id="1626"></path><path d="M512 315.86304c50.816 0 92.16 41.344 92.16 92.16s-41.344 92.16-92.16 92.16-92.16-41.344-92.16-92.16 41.344-92.16 92.16-92.16m0-71.68c-90.48576 0-163.84 73.35424-163.84 163.84 0 90.48576 73.35424 163.84 163.84 163.84s163.84-73.35424 163.84-163.84c0-90.48576-73.35424-163.84-163.84-163.84z" fill="black" p-id="1627"></path></svg>
