<svg viewBox="0 0 16 16" fill="none" xmlns="http://www.w3.org/2000/svg">
<path d="M8 2.33333C5.67734 2.33333 3.6796 3.73083 2.80456 5.73358L2.53764 6.34448L1.31584 5.81065L1.58275 5.19975C2.66232 2.72888 5.12852 1 8 1C10.3301 1 12.3943 2.13849 13.6667 3.88954V2.9H15V8H13.6667C13.6667 4.87039 11.1296 2.33333 8 2.33333Z" fill="currentColor" />
<path d="M2.33333 8C2.33333 11.1296 4.87039 13.6667 8 13.6667C10.3227 13.6667 12.3204 12.2692 13.1954 10.2664L13.4624 9.65552L14.6842 10.1893L14.4172 10.8002C13.3377 13.2711 10.8715 15 8 15C5.6699 15 3.6057 13.8615 2.33333 12.1105V13.1H1V8H2.33333Z" fill="currentColor" />
<path fill-rule="evenodd" clip-rule="evenodd" d="M9.30543 8.71745L10.346 10.9374L11.5533 10.3715L8.77336 4.44093C8.53233 3.92673 7.80105 3.92678 7.56005 4.44093L4.78011 10.3715L5.98739 10.9374L7.02798 8.71745H9.30543ZM8.68043 7.38411L8.16671 6.28816L7.65298 7.38411H8.68043Z" fill="currentColor" />
</svg>
