<svg viewBox="0 0 16 16" fill="none" xmlns="http://www.w3.org/2000/svg">
<path fill-rule="evenodd" clip-rule="evenodd" d="M7.99999 0.666656C3.9499 0.666656 0.666656 3.9499 0.666656 7.99999C0.666656 12.0501 3.9499 15.3333 7.99999 15.3333C12.0501 15.3333 15.3333 12.0501 15.3333 7.99999C15.3333 3.9499 12.0501 0.666656 7.99999 0.666656ZM2.03661 7.33332H4.35504C4.48774 5.30325 5.22171 3.45981 6.36483 2.2255C4.05249 2.87899 2.30737 4.88398 2.03661 7.33332ZM4.35504 8.66666H2.03661C2.30737 11.116 4.0525 13.121 6.36484 13.7745C5.22171 12.5402 4.48774 10.6967 4.35504 8.66666ZM5.69121 8.66666H10.3088C10.1467 10.8491 9.20057 12.6038 7.99999 13.4449C6.7994 12.6038 5.85324 10.8491 5.69121 8.66666ZM10.3088 7.33332H5.69121C5.85323 5.15088 6.7994 3.39617 7.99999 2.55504C9.20057 3.39617 10.1467 5.15088 10.3088 7.33332ZM11.6449 8.66666C11.5122 10.6967 10.7783 12.5402 9.63513 13.7745C11.9475 13.121 13.6926 11.116 13.9634 8.66666H11.6449ZM13.9634 7.33332H11.6449C11.5122 5.30325 10.7783 3.45981 9.63514 2.2255C11.9475 2.87899 13.6926 4.88398 13.9634 7.33332Z" fill="currentColor" />
</svg>
